# MagicaVoxel @ Ephtracy

# group
o 

# material
mtllib chicken.mtl
usemtl palette

# normals
vn -1 0 0
vn 1 0 0
vn 0 0 1
vn 0 0 -1
vn 0 -1 0
vn 0 1 0

# texcoords
vt 0.306641 0.5
vt 0.841797 0.5
vt 0.958984 0.5
vt 0.994141 0.5

# verts
v 0.8 3.5 -1.6
v 0.8 3.5 -2.6
v 0.8 3.7 -2.6
v 0.8 3.7 -2.7
v 0.8 3.9 -1.6
v 0.8 3.9 -2.7
v 1 2 -1.7
v 1 2 -1.8
v 1 2.3 -1.7
v 1 2.3 -1.8
v 1.1 2 -1.8
v 1.1 2 -1.9
v 1.1 2.3 -1.8
v 1.1 2.3 -1.9
v 1.1 3.2 -1.2
v 1.1 3.2 -2.9
v 1.1 3.5 -1.6
v 1.1 3.5 -2.6
v 1.1 3.7 -2.6
v 1.1 3.7 -2.7
v 1.1 3.9 -1.6
v 1.1 3.9 -2.7
v 1.1 4.3 -1.2
v 1.1 4.3 -2.9
v 1.2 2 -1.9
v 1.2 2 -2
v 1.2 2.3 -1.9
v 1.2 2.3 -2
v 1.3 2 -1.4
v 1.3 2 -1.8
v 1.3 2 -2
v 1.3 2 -2.3
v 1.3 2.3 -1.4
v 1.3 2.3 -1.8
v 1.3 2.3 -2
v 1.3 3 -1.8
v 1.3 3 -2
v 1.3 3 -2.3
v 1.3 3 -2.5
v 1.3 3.2 -1.8
v 1.3 3.2 -2.5
v 1.3 3.4 -2.9
v 1.3 3.4 -3.2
v 1.3 3.9 -2.9
v 1.3 3.9 -3.2
v 1.4 4.3 -1.5
v 1.4 4.3 -2.5
v 1.4 5.4 -1.5
v 1.4 5.4 -2.5
v 1.7 2.1 -1.7
v 1.7 2.1 -1.8
v 1.7 2.3 -1.7
v 1.7 2.3 -1.8
v 1.8 4.7 -1.3
v 1.8 4.7 -1.5
v 1.8 4.8 -1.2
v 1.8 4.8 -1.3
v 1.8 5 -1.2
v 1.8 5 -1.5
v 1.8 5.4 -1.6
v 1.8 5.4 -2.4
v 1.8 5.5 -1.6
v 1.8 5.5 -1.7
v 1.8 5.6 -1.7
v 1.8 5.6 -2.4
v 1.9 4.5 -1.4
v 1.9 4.5 -1.5
v 1.9 4.7 -1.4
v 1.9 4.7 -1.5
v 2.1 2.1 -1.7
v 2.1 2.1 -1.8
v 2.1 2.3 -1.7
v 2.1 2.3 -1.8
v 2.1 3 -1.8
v 2.1 3 -2.5
v 2.1 3.2 -1.8
v 2.1 3.2 -2.5
v 2.2 2.1 -1.8
v 2.2 2.1 -1.9
v 2.2 2.3 -1.8
v 2.2 2.3 -1.9
v 2.3 2.1 -1.9
v 2.3 2.1 -2
v 2.3 2.3 -1.9
v 2.3 2.3 -2
v 2.4 2 -1.4
v 2.4 2 -2.3
v 2.4 2.1 -1.8
v 2.4 2.1 -2
v 2.4 2.3 -1.4
v 2.4 2.3 -1.8
v 2.4 2.3 -2
v 2.4 3 -2
v 2.4 3 -2.3
v 2.8 2 -1.7
v 2.8 2 -1.8
v 2.8 2.3 -1.7
v 2.8 2.3 -1.8
v 1.2 2 -1.7
v 1.2 2 -1.8
v 1.2 2.3 -1.7
v 1.2 2.3 -1.8
v 1.6 2 -1.4
v 1.6 2 -2.3
v 1.6 2.1 -1.8
v 1.6 2.1 -2
v 1.6 2.3 -1.4
v 1.6 2.3 -1.8
v 1.6 2.3 -2
v 1.6 3 -2
v 1.6 3 -2.3
v 1.7 2.1 -1.9
v 1.7 2.1 -2
v 1.7 2.3 -1.9
v 1.7 2.3 -2
v 1.8 2.1 -1.8
v 1.8 2.1 -1.9
v 1.8 2.3 -1.8
v 1.8 2.3 -1.9
v 1.9 2.1 -1.7
v 1.9 2.1 -1.8
v 1.9 2.3 -1.7
v 1.9 2.3 -1.8
v 1.9 3 -1.8
v 1.9 3 -2.5
v 1.9 3.2 -1.8
v 1.9 3.2 -2.5
v 2.1 4.5 -1.4
v 2.1 4.5 -1.5
v 2.1 4.7 -1.4
v 2.1 4.7 -1.5
v 2.2 4.7 -1.3
v 2.2 4.7 -1.5
v 2.2 4.8 -1.2
v 2.2 4.8 -1.3
v 2.2 5 -1.2
v 2.2 5 -1.5
v 2.2 5.4 -1.6
v 2.2 5.4 -2.4
v 2.2 5.5 -1.6
v 2.2 5.5 -1.7
v 2.2 5.6 -1.7
v 2.2 5.6 -2.4
v 2.3 2.1 -1.7
v 2.3 2.1 -1.8
v 2.3 2.3 -1.7
v 2.3 2.3 -1.8
v 2.6 4.3 -1.5
v 2.6 4.3 -2.5
v 2.6 5.4 -1.5
v 2.6 5.4 -2.5
v 2.7 2 -1.4
v 2.7 2 -1.8
v 2.7 2 -2
v 2.7 2 -2.3
v 2.7 2.3 -1.4
v 2.7 2.3 -1.8
v 2.7 2.3 -2
v 2.7 3 -1.8
v 2.7 3 -2
v 2.7 3 -2.3
v 2.7 3 -2.5
v 2.7 3.2 -1.8
v 2.7 3.2 -2.5
v 2.7 3.4 -2.9
v 2.7 3.4 -3.2
v 2.7 3.9 -2.9
v 2.7 3.9 -3.2
v 2.8 2 -1.9
v 2.8 2 -2
v 2.8 2.3 -1.9
v 2.8 2.3 -2
v 2.9 2 -1.8
v 2.9 2 -1.9
v 2.9 2.3 -1.8
v 2.9 2.3 -1.9
v 2.9 3.2 -1.2
v 2.9 3.2 -2.9
v 2.9 3.5 -1.5
v 2.9 3.5 -2.6
v 2.9 3.7 -2.6
v 2.9 3.7 -2.7
v 2.9 3.9 -1.5
v 2.9 3.9 -2.7
v 2.9 4.3 -1.2
v 2.9 4.3 -2.9
v 3 2 -1.7
v 3 2 -1.8
v 3 2.3 -1.7
v 3 2.3 -1.8
v 3.2 3.5 -1.5
v 3.2 3.5 -2.6
v 3.2 3.7 -2.6
v 3.2 3.7 -2.7
v 3.2 3.9 -1.5
v 3.2 3.9 -2.7
v 1.1 3.2 -1.2
v 1.1 4.3 -1.2
v 1.8 4.8 -1.2
v 1.8 5 -1.2
v 2.2 4.8 -1.2
v 2.2 5 -1.2
v 2.9 3.2 -1.2
v 2.9 4.3 -1.2
v 1.8 4.7 -1.3
v 1.8 4.8 -1.3
v 2.2 4.7 -1.3
v 2.2 4.8 -1.3
v 1.3 2 -1.4
v 1.3 2.3 -1.4
v 1.6 2 -1.4
v 1.6 2.3 -1.4
v 1.9 4.5 -1.4
v 1.9 4.7 -1.4
v 2.1 4.5 -1.4
v 2.1 4.7 -1.4
v 2.4 2 -1.4
v 2.4 2.3 -1.4
v 2.7 2 -1.4
v 2.7 2.3 -1.4
v 1.4 4.3 -1.5
v 1.4 5.4 -1.5
v 1.6 5 -1.5
v 1.6 5.2 -1.5
v 1.8 4.7 -1.5
v 1.8 5 -1.5
v 1.8 5.2 -1.5
v 1.9 4.5 -1.5
v 1.9 4.7 -1.5
v 2.1 4.5 -1.5
v 2.1 4.7 -1.5
v 2.2 4.7 -1.5
v 2.2 5 -1.5
v 2.2 5.2 -1.5
v 2.4 5 -1.5
v 2.4 5.2 -1.5
v 2.6 4.3 -1.5
v 2.6 5.4 -1.5
v 2.9 3.5 -1.5
v 2.9 3.9 -1.5
v 3.2 3.5 -1.5
v 3.2 3.9 -1.5
v 0.8 3.5 -1.6
v 0.8 3.9 -1.6
v 1.1 3.5 -1.6
v 1.1 3.9 -1.6
v 1.8 5.4 -1.6
v 1.8 5.5 -1.6
v 2.2 5.4 -1.6
v 2.2 5.5 -1.6
v 1 2 -1.7
v 1 2.3 -1.7
v 1.2 2 -1.7
v 1.2 2.3 -1.7
v 1.7 2.1 -1.7
v 1.7 2.3 -1.7
v 1.8 5.5 -1.7
v 1.8 5.6 -1.7
v 1.9 2.1 -1.7
v 1.9 2.3 -1.7
v 2.1 2.1 -1.7
v 2.1 2.3 -1.7
v 2.2 5.5 -1.7
v 2.2 5.6 -1.7
v 2.3 2.1 -1.7
v 2.3 2.3 -1.7
v 2.8 2 -1.7
v 2.8 2.3 -1.7
v 3 2 -1.7
v 3 2.3 -1.7
v 1.2 2 -1.8
v 1.2 2.3 -1.8
v 1.3 2 -1.8
v 1.3 2.3 -1.8
v 1.3 3 -1.8
v 1.3 3.2 -1.8
v 1.6 2.1 -1.8
v 1.6 2.3 -1.8
v 1.7 2.1 -1.8
v 1.7 2.3 -1.8
v 1.9 3 -1.8
v 1.9 3.2 -1.8
v 2.1 3 -1.8
v 2.1 3.2 -1.8
v 2.3 2.1 -1.8
v 2.3 2.3 -1.8
v 2.4 2.1 -1.8
v 2.4 2.3 -1.8
v 2.7 2 -1.8
v 2.7 2.3 -1.8
v 2.7 3 -1.8
v 2.7 3.2 -1.8
v 2.8 2 -1.8
v 2.8 2.3 -1.8
v 1.3 2.3 -2
v 1.3 3 -2
v 1.6 2.3 -2
v 1.6 3 -2
v 2.4 2.3 -2
v 2.4 3 -2
v 2.7 2.3 -2
v 2.7 3 -2
v 1 2 -1.8
v 1 2.3 -1.8
v 1.1 2 -1.8
v 1.1 2.3 -1.8
v 1.8 2.1 -1.8
v 1.8 2.3 -1.8
v 1.9 2.1 -1.8
v 1.9 2.3 -1.8
v 2.1 2.1 -1.8
v 2.1 2.3 -1.8
v 2.2 2.1 -1.8
v 2.2 2.3 -1.8
v 2.9 2 -1.8
v 2.9 2.3 -1.8
v 3 2 -1.8
v 3 2.3 -1.8
v 1.1 2 -1.9
v 1.1 2.3 -1.9
v 1.2 2 -1.9
v 1.2 2.3 -1.9
v 1.7 2.1 -1.9
v 1.7 2.3 -1.9
v 1.8 2.1 -1.9
v 1.8 2.3 -1.9
v 2.2 2.1 -1.9
v 2.2 2.3 -1.9
v 2.3 2.1 -1.9
v 2.3 2.3 -1.9
v 2.8 2 -1.9
v 2.8 2.3 -1.9
v 2.9 2 -1.9
v 2.9 2.3 -1.9
v 1.2 2 -2
v 1.2 2.3 -2
v 1.3 2 -2
v 1.3 2.3 -2
v 1.6 2.1 -2
v 1.6 2.3 -2
v 1.7 2.1 -2
v 1.7 2.3 -2
v 2.3 2.1 -2
v 2.3 2.3 -2
v 2.4 2.1 -2
v 2.4 2.3 -2
v 2.7 2 -2
v 2.7 2.3 -2
v 2.8 2 -2
v 2.8 2.3 -2
v 1.3 2 -2.3
v 1.3 3 -2.3
v 1.6 2 -2.3
v 1.6 3 -2.3
v 2.4 2 -2.3
v 2.4 3 -2.3
v 2.7 2 -2.3
v 2.7 3 -2.3
v 1.8 5.4 -2.4
v 1.8 5.6 -2.4
v 2.2 5.4 -2.4
v 2.2 5.6 -2.4
v 1.3 3 -2.5
v 1.3 3.2 -2.5
v 1.4 4.3 -2.5
v 1.4 5.4 -2.5
v 1.9 3 -2.5
v 1.9 3.2 -2.5
v 2.1 3 -2.5
v 2.1 3.2 -2.5
v 2.6 4.3 -2.5
v 2.6 5.4 -2.5
v 2.7 3 -2.5
v 2.7 3.2 -2.5
v 0.8 3.5 -2.6
v 0.8 3.7 -2.6
v 1.1 3.5 -2.6
v 1.1 3.7 -2.6
v 2.9 3.5 -2.6
v 2.9 3.7 -2.6
v 3.2 3.5 -2.6
v 3.2 3.7 -2.6
v 0.8 3.7 -2.7
v 0.8 3.9 -2.7
v 1.1 3.7 -2.7
v 1.1 3.9 -2.7
v 2.9 3.7 -2.7
v 2.9 3.9 -2.7
v 3.2 3.7 -2.7
v 3.2 3.9 -2.7
v 1.1 3.2 -2.9
v 1.1 4.3 -2.9
v 1.3 3.4 -2.9
v 1.3 3.9 -2.9
v 2.7 3.4 -2.9
v 2.7 3.9 -2.9
v 2.9 3.2 -2.9
v 2.9 4.3 -2.9
v 1.3 3.4 -3.2
v 1.3 3.9 -3.2
v 2.7 3.4 -3.2
v 2.7 3.9 -3.2
v 1.3 2 -1.4
v 1.6 2 -1.4
v 2.4 2 -1.4
v 2.7 2 -1.4
v 1 2 -1.7
v 1.2 2 -1.7
v 2.8 2 -1.7
v 3 2 -1.7
v 1 2 -1.8
v 1.1 2 -1.8
v 1.2 2 -1.8
v 1.3 2 -1.8
v 2.7 2 -1.8
v 2.8 2 -1.8
v 2.9 2 -1.8
v 3 2 -1.8
v 1.1 2 -1.9
v 1.2 2 -1.9
v 2.8 2 -1.9
v 2.9 2 -1.9
v 1.2 2 -2
v 1.3 2 -2
v 2.7 2 -2
v 2.8 2 -2
v 1.3 2 -2.3
v 1.6 2 -2.3
v 2.4 2 -2.3
v 2.7 2 -2.3
v 1.7 2.1 -1.7
v 1.9 2.1 -1.7
v 2.1 2.1 -1.7
v 2.3 2.1 -1.7
v 1.6 2.1 -1.8
v 1.7 2.1 -1.8
v 1.8 2.1 -1.8
v 1.9 2.1 -1.8
v 2.1 2.1 -1.8
v 2.2 2.1 -1.8
v 2.3 2.1 -1.8
v 2.4 2.1 -1.8
v 1.7 2.1 -1.9
v 1.8 2.1 -1.9
v 2.2 2.1 -1.9
v 2.3 2.1 -1.9
v 1.6 2.1 -2
v 1.7 2.1 -2
v 2.3 2.1 -2
v 2.4 2.1 -2
v 1.3 3 -1.8
v 1.9 3 -1.8
v 2.1 3 -1.8
v 2.7 3 -1.8
v 1.3 3 -2
v 1.6 3 -2
v 2.4 3 -2
v 2.7 3 -2
v 1.3 3 -2.3
v 1.6 3 -2.3
v 2.4 3 -2.3
v 2.7 3 -2.3
v 1.3 3 -2.5
v 1.9 3 -2.5
v 2.1 3 -2.5
v 2.7 3 -2.5
v 1.1 3.2 -1.2
v 2.9 3.2 -1.2
v 1.3 3.2 -1.8
v 1.9 3.2 -1.8
v 2.1 3.2 -1.8
v 2.7 3.2 -1.8
v 1.3 3.2 -2.5
v 1.9 3.2 -2.5
v 2.1 3.2 -2.5
v 2.7 3.2 -2.5
v 1.1 3.2 -2.9
v 2.9 3.2 -2.9
v 1.3 3.4 -2.9
v 2.7 3.4 -2.9
v 1.3 3.4 -3.2
v 2.7 3.4 -3.2
v 2.9 3.5 -1.5
v 3.2 3.5 -1.5
v 0.8 3.5 -1.6
v 1.1 3.5 -1.6
v 0.8 3.5 -2.6
v 1.1 3.5 -2.6
v 2.9 3.5 -2.6
v 3.2 3.5 -2.6
v 0.8 3.7 -2.6
v 1.1 3.7 -2.6
v 2.9 3.7 -2.6
v 3.2 3.7 -2.6
v 0.8 3.7 -2.7
v 1.1 3.7 -2.7
v 2.9 3.7 -2.7
v 3.2 3.7 -2.7
v 1.9 4.5 -1.4
v 2.1 4.5 -1.4
v 1.9 4.5 -1.5
v 2.1 4.5 -1.5
v 1.8 4.7 -1.3
v 2.2 4.7 -1.3
v 1.9 4.7 -1.4
v 2.1 4.7 -1.4
v 1.8 4.7 -1.5
v 1.9 4.7 -1.5
v 2.1 4.7 -1.5
v 2.2 4.7 -1.5
v 1.8 4.8 -1.2
v 2.2 4.8 -1.2
v 1.8 4.8 -1.3
v 2.2 4.8 -1.3
v 1.3 2.3 -1.4
v 1.6 2.3 -1.4
v 2.4 2.3 -1.4
v 2.7 2.3 -1.4
v 1 2.3 -1.7
v 1.2 2.3 -1.7
v 1.7 2.3 -1.7
v 1.9 2.3 -1.7
v 2.1 2.3 -1.7
v 2.3 2.3 -1.7
v 2.8 2.3 -1.7
v 3 2.3 -1.7
v 1 2.3 -1.8
v 1.1 2.3 -1.8
v 1.2 2.3 -1.8
v 1.3 2.3 -1.8
v 1.6 2.3 -1.8
v 1.7 2.3 -1.8
v 1.8 2.3 -1.8
v 1.9 2.3 -1.8
v 2.1 2.3 -1.8
v 2.2 2.3 -1.8
v 2.3 2.3 -1.8
v 2.4 2.3 -1.8
v 2.7 2.3 -1.8
v 2.8 2.3 -1.8
v 2.9 2.3 -1.8
v 3 2.3 -1.8
v 1.1 2.3 -1.9
v 1.2 2.3 -1.9
v 1.7 2.3 -1.9
v 1.8 2.3 -1.9
v 2.2 2.3 -1.9
v 2.3 2.3 -1.9
v 2.8 2.3 -1.9
v 2.9 2.3 -1.9
v 1.2 2.3 -2
v 1.3 2.3 -2
v 1.6 2.3 -2
v 1.7 2.3 -2
v 2.3 2.3 -2
v 2.4 2.3 -2
v 2.7 2.3 -2
v 2.8 2.3 -2
v 2.9 3.9 -1.5
v 3.2 3.9 -1.5
v 0.8 3.9 -1.6
v 1.1 3.9 -1.6
v 0.8 3.9 -2.7
v 1.1 3.9 -2.7
v 2.9 3.9 -2.7
v 3.2 3.9 -2.7
v 1.3 3.9 -2.9
v 2.7 3.9 -2.9
v 1.3 3.9 -3.2
v 2.7 3.9 -3.2
v 1.1 4.3 -1.2
v 2.9 4.3 -1.2
v 1.4 4.3 -1.5
v 2.6 4.3 -1.5
v 1.4 4.3 -2.5
v 2.6 4.3 -2.5
v 1.1 4.3 -2.9
v 2.9 4.3 -2.9
v 1.8 5 -1.2
v 2.2 5 -1.2
v 1.8 5 -1.5
v 2.2 5 -1.5
v 1.4 5.4 -1.5
v 2.6 5.4 -1.5
v 1.8 5.4 -1.6
v 2.2 5.4 -1.6
v 1.8 5.4 -2.4
v 2.2 5.4 -2.4
v 1.4 5.4 -2.5
v 2.6 5.4 -2.5
v 1.8 5.5 -1.6
v 2.2 5.5 -1.6
v 1.8 5.5 -1.7
v 2.2 5.5 -1.7
v 1.8 5.6 -1.7
v 2.2 5.6 -1.7
v 1.8 5.6 -2.4
v 2.2 5.6 -2.4

# faces
f 3/3/1 2/3/1 1/3/1
f 5/3/1 3/3/1 1/3/1
f 5/3/1 4/3/1 3/3/1
f 6/3/1 4/3/1 5/3/1
f 9/1/1 8/1/1 7/1/1
f 10/1/1 8/1/1 9/1/1
f 13/1/1 12/1/1 11/1/1
f 14/1/1 12/1/1 13/1/1
f 17/3/1 16/3/1 15/3/1
f 18/3/1 16/3/1 17/3/1
f 19/3/1 16/3/1 18/3/1
f 20/3/1 16/3/1 19/3/1
f 21/3/1 17/3/1 15/3/1
f 22/3/1 16/3/1 20/3/1
f 23/3/1 21/3/1 15/3/1
f 23/3/1 22/3/1 21/3/1
f 24/3/1 16/3/1 22/3/1
f 24/3/1 22/3/1 23/3/1
f 27/1/1 26/1/1 25/1/1
f 28/1/1 26/1/1 27/1/1
f 33/1/1 30/1/1 29/1/1
f 34/1/1 30/1/1 33/1/1
f 35/1/1 32/1/1 31/1/1
f 37/1/1 32/1/1 35/1/1
f 38/1/1 32/1/1 37/1/1
f 40/3/1 37/3/1 36/3/1
f 40/3/1 39/3/1 38/3/1
f 40/3/1 38/3/1 37/3/1
f 41/3/1 39/3/1 40/3/1
f 44/3/1 43/3/1 42/3/1
f 45/3/1 43/3/1 44/3/1
f 48/3/1 47/3/1 46/3/1
f 49/3/1 47/3/1 48/3/1
f 52/1/1 51/1/1 50/1/1
f 53/1/1 51/1/1 52/1/1
f 57/1/1 55/1/1 54/1/1
f 58/1/1 57/1/1 56/1/1
f 59/1/1 55/1/1 57/1/1
f 59/1/1 57/1/1 58/1/1
f 62/2/1 61/2/1 60/2/1
f 63/2/1 61/2/1 62/2/1
f 64/2/1 61/2/1 63/2/1
f 65/2/1 61/2/1 64/2/1
f 68/2/1 67/2/1 66/2/1
f 69/2/1 67/2/1 68/2/1
f 72/1/1 71/1/1 70/1/1
f 73/1/1 71/1/1 72/1/1
f 76/3/1 75/3/1 74/3/1
f 77/3/1 75/3/1 76/3/1
f 80/1/1 79/1/1 78/1/1
f 81/1/1 79/1/1 80/1/1
f 84/1/1 83/1/1 82/1/1
f 85/1/1 83/1/1 84/1/1
f 88/1/1 87/1/1 86/1/1
f 89/1/1 87/1/1 88/1/1
f 90/1/1 88/1/1 86/1/1
f 91/1/1 88/1/1 90/1/1
f 92/1/1 87/1/1 89/1/1
f 93/1/1 87/1/1 92/1/1
f 94/1/1 87/1/1 93/1/1
f 97/1/1 96/1/1 95/1/1
f 98/1/1 96/1/1 97/1/1
f 99/1/2 100/1/2 101/1/2
f 101/1/2 100/1/2 102/1/2
f 103/1/2 104/1/2 105/1/2
f 105/1/2 104/1/2 106/1/2
f 103/1/2 105/1/2 107/1/2
f 107/1/2 105/1/2 108/1/2
f 106/1/2 104/1/2 109/1/2
f 109/1/2 104/1/2 110/1/2
f 110/1/2 104/1/2 111/1/2
f 112/1/2 113/1/2 114/1/2
f 114/1/2 113/1/2 115/1/2
f 116/1/2 117/1/2 118/1/2
f 118/1/2 117/1/2 119/1/2
f 120/1/2 121/1/2 122/1/2
f 122/1/2 121/1/2 123/1/2
f 124/3/2 125/3/2 126/3/2
f 126/3/2 125/3/2 127/3/2
f 128/2/2 129/2/2 130/2/2
f 130/2/2 129/2/2 131/2/2
f 132/1/2 133/1/2 135/1/2
f 134/1/2 135/1/2 136/1/2
f 135/1/2 133/1/2 137/1/2
f 136/1/2 135/1/2 137/1/2
f 138/2/2 139/2/2 140/2/2
f 140/2/2 139/2/2 141/2/2
f 141/2/2 139/2/2 142/2/2
f 142/2/2 139/2/2 143/2/2
f 144/1/2 145/1/2 146/1/2
f 146/1/2 145/1/2 147/1/2
f 148/3/2 149/3/2 150/3/2
f 150/3/2 149/3/2 151/3/2
f 152/1/2 153/1/2 156/1/2
f 156/1/2 153/1/2 157/1/2
f 154/1/2 155/1/2 158/1/2
f 158/1/2 155/1/2 160/1/2
f 160/1/2 155/1/2 161/1/2
f 159/3/2 160/3/2 163/3/2
f 161/3/2 162/3/2 163/3/2
f 160/3/2 161/3/2 163/3/2
f 163/3/2 162/3/2 164/3/2
f 165/3/2 166/3/2 167/3/2
f 167/3/2 166/3/2 168/3/2
f 169/1/2 170/1/2 171/1/2
f 171/1/2 170/1/2 172/1/2
f 173/1/2 174/1/2 175/1/2
f 175/1/2 174/1/2 176/1/2
f 177/3/2 178/3/2 179/3/2
f 179/3/2 178/3/2 180/3/2
f 180/3/2 178/3/2 181/3/2
f 181/3/2 178/3/2 182/3/2
f 177/3/2 179/3/2 183/3/2
f 182/3/2 178/3/2 184/3/2
f 177/3/2 183/3/2 185/3/2
f 183/3/2 184/3/2 185/3/2
f 184/3/2 178/3/2 186/3/2
f 185/3/2 184/3/2 186/3/2
f 187/1/2 188/1/2 189/1/2
f 189/1/2 188/1/2 190/1/2
f 191/3/2 192/3/2 193/3/2
f 191/3/2 193/3/2 195/3/2
f 193/3/2 194/3/2 195/3/2
f 195/3/2 194/3/2 196/3/2
f 201/1/3 200/1/3 199/1/3
f 202/1/3 200/1/3 201/1/3
f 203/3/3 198/3/3 197/3/3
f 204/3/3 198/3/3 203/3/3
f 207/1/3 206/1/3 205/1/3
f 208/1/3 206/1/3 207/1/3
f 211/1/3 210/1/3 209/1/3
f 212/1/3 210/1/3 211/1/3
f 215/2/3 214/2/3 213/2/3
f 216/2/3 214/2/3 215/2/3
f 219/1/3 218/1/3 217/1/3
f 220/1/3 218/1/3 219/1/3
f 223/3/3 222/3/3 221/3/3
f 224/3/3 222/3/3 223/3/3
f 225/3/3 223/3/3 221/3/3
f 226/4/3 224/4/3 223/4/3
f 226/3/3 223/3/3 225/3/3
f 227/3/3 222/3/3 224/3/3
f 227/4/3 224/4/3 226/4/3
f 228/3/3 225/3/3 221/3/3
f 229/3/3 225/3/3 228/3/3
f 230/3/3 228/3/3 221/3/3
f 232/3/3 231/3/3 230/3/3
f 233/3/3 227/3/3 226/3/3
f 234/3/3 222/3/3 227/3/3
f 234/3/3 227/3/3 233/3/3
f 235/3/3 233/3/3 232/3/3
f 235/4/3 234/4/3 233/4/3
f 236/3/3 222/3/3 234/3/3
f 236/4/3 234/4/3 235/4/3
f 237/3/3 235/3/3 232/3/3
f 237/3/3 232/3/3 230/3/3
f 237/3/3 236/3/3 235/3/3
f 237/3/3 230/3/3 221/3/3
f 238/3/3 222/3/3 236/3/3
f 238/3/3 236/3/3 237/3/3
f 241/3/3 240/3/3 239/3/3
f 242/3/3 240/3/3 241/3/3
f 245/3/3 244/3/3 243/3/3
f 246/3/3 244/3/3 245/3/3
f 249/2/3 248/2/3 247/2/3
f 250/2/3 248/2/3 249/2/3
f 253/1/3 252/1/3 251/1/3
f 254/1/3 252/1/3 253/1/3
f 259/1/3 256/1/3 255/1/3
f 260/1/3 256/1/3 259/1/3
f 263/2/3 258/2/3 257/2/3
f 264/2/3 258/2/3 263/2/3
f 265/1/3 262/1/3 261/1/3
f 266/1/3 262/1/3 265/1/3
f 269/1/3 268/1/3 267/1/3
f 270/1/3 268/1/3 269/1/3
f 273/1/3 272/1/3 271/1/3
f 274/1/3 272/1/3 273/1/3
f 279/1/3 278/1/3 277/1/3
f 280/1/3 278/1/3 279/1/3
f 281/3/3 276/3/3 275/3/3
f 282/3/3 276/3/3 281/3/3
f 287/1/3 286/1/3 285/1/3
f 288/1/3 286/1/3 287/1/3
f 291/3/3 284/3/3 283/3/3
f 292/3/3 284/3/3 291/3/3
f 293/1/3 290/1/3 289/1/3
f 294/1/3 290/1/3 293/1/3
f 297/1/3 296/1/3 295/1/3
f 298/1/3 296/1/3 297/1/3
f 301/1/3 300/1/3 299/1/3
f 302/1/3 300/1/3 301/1/3
f 303/1/4 304/1/4 305/1/4
f 305/1/4 304/1/4 306/1/4
f 307/1/4 308/1/4 309/1/4
f 309/1/4 308/1/4 310/1/4
f 311/1/4 312/1/4 313/1/4
f 313/1/4 312/1/4 314/1/4
f 315/1/4 316/1/4 317/1/4
f 317/1/4 316/1/4 318/1/4
f 319/1/4 320/1/4 321/1/4
f 321/1/4 320/1/4 322/1/4
f 323/1/4 324/1/4 325/1/4
f 325/1/4 324/1/4 326/1/4
f 327/1/4 328/1/4 329/1/4
f 329/1/4 328/1/4 330/1/4
f 331/1/4 332/1/4 333/1/4
f 333/1/4 332/1/4 334/1/4
f 335/1/4 336/1/4 337/1/4
f 337/1/4 336/1/4 338/1/4
f 339/1/4 340/1/4 341/1/4
f 341/1/4 340/1/4 342/1/4
f 343/1/4 344/1/4 345/1/4
f 345/1/4 344/1/4 346/1/4
f 347/1/4 348/1/4 349/1/4
f 349/1/4 348/1/4 350/1/4
f 351/1/4 352/1/4 353/1/4
f 353/1/4 352/1/4 354/1/4
f 355/1/4 356/1/4 357/1/4
f 357/1/4 356/1/4 358/1/4
f 359/2/4 360/2/4 361/2/4
f 361/2/4 360/2/4 362/2/4
f 363/3/4 364/3/4 367/3/4
f 367/3/4 364/3/4 368/3/4
f 365/3/4 366/3/4 371/3/4
f 371/3/4 366/3/4 372/3/4
f 369/3/4 370/3/4 373/3/4
f 373/3/4 370/3/4 374/3/4
f 375/3/4 376/3/4 377/3/4
f 377/3/4 376/3/4 378/3/4
f 379/3/4 380/3/4 381/3/4
f 381/3/4 380/3/4 382/3/4
f 383/3/4 384/3/4 385/3/4
f 385/3/4 384/3/4 386/3/4
f 387/3/4 388/3/4 389/3/4
f 389/3/4 388/3/4 390/3/4
f 391/3/4 392/3/4 393/3/4
f 393/3/4 392/3/4 394/3/4
f 391/3/4 393/3/4 395/3/4
f 394/3/4 392/3/4 396/3/4
f 391/3/4 395/3/4 397/3/4
f 395/3/4 396/3/4 397/3/4
f 396/3/4 392/3/4 398/3/4
f 397/3/4 396/3/4 398/3/4
f 399/3/4 400/3/4 401/3/4
f 401/3/4 400/3/4 402/3/4
f 411/1/5 408/1/5 407/1/5
f 412/1/5 408/1/5 411/1/5
f 413/1/5 408/1/5 412/1/5
f 414/1/5 404/1/5 403/1/5
f 415/1/5 406/1/5 405/1/5
f 416/1/5 410/1/5 409/1/5
f 417/1/5 410/1/5 416/1/5
f 418/1/5 410/1/5 417/1/5
f 419/1/5 413/1/5 412/1/5
f 419/1/5 414/1/5 413/1/5
f 420/1/5 414/1/5 419/1/5
f 421/1/5 417/1/5 416/1/5
f 421/1/5 416/1/5 415/1/5
f 422/1/5 417/1/5 421/1/5
f 423/1/5 414/1/5 420/1/5
f 424/1/5 404/1/5 414/1/5
f 424/1/5 414/1/5 423/1/5
f 425/1/5 415/1/5 405/1/5
f 425/1/5 421/1/5 415/1/5
f 426/1/5 421/1/5 425/1/5
f 427/1/5 404/1/5 424/1/5
f 428/1/5 404/1/5 427/1/5
f 429/1/5 425/1/5 405/1/5
f 430/1/5 425/1/5 429/1/5
f 436/1/5 432/1/5 431/1/5
f 437/1/5 432/1/5 436/1/5
f 438/1/5 432/1/5 437/1/5
f 439/1/5 434/1/5 433/1/5
f 440/1/5 434/1/5 439/1/5
f 441/1/5 434/1/5 440/1/5
f 443/1/5 436/1/5 435/1/5
f 443/1/5 437/1/5 436/1/5
f 444/1/5 437/1/5 443/1/5
f 445/1/5 442/1/5 441/1/5
f 445/1/5 441/1/5 440/1/5
f 446/1/5 442/1/5 445/1/5
f 447/1/5 443/1/5 435/1/5
f 448/1/5 443/1/5 447/1/5
f 449/1/5 442/1/5 446/1/5
f 450/1/5 442/1/5 449/1/5
f 455/3/5 452/3/5 451/3/5
f 456/3/5 452/3/5 455/3/5
f 457/3/5 454/3/5 453/3/5
f 458/3/5 454/3/5 457/3/5
f 460/3/5 452/3/5 456/3/5
f 461/3/5 457/3/5 453/3/5
f 463/3/5 460/3/5 459/3/5
f 464/3/5 452/3/5 460/3/5
f 464/3/5 460/3/5 463/3/5
f 465/3/5 462/3/5 461/3/5
f 465/3/5 461/3/5 453/3/5
f 466/3/5 462/3/5 465/3/5
f 469/3/5 468/3/5 467/3/5
f 470/3/5 468/3/5 469/3/5
f 471/3/5 468/3/5 470/3/5
f 472/3/5 468/3/5 471/3/5
f 473/3/5 469/3/5 467/3/5
f 474/3/5 471/3/5 470/3/5
f 475/3/5 471/3/5 474/3/5
f 476/3/5 468/3/5 472/3/5
f 477/3/5 475/3/5 474/3/5
f 477/3/5 476/3/5 475/3/5
f 477/3/5 473/3/5 467/3/5
f 477/3/5 474/3/5 473/3/5
f 478/3/5 468/3/5 476/3/5
f 478/3/5 476/3/5 477/3/5
f 481/3/5 480/3/5 479/3/5
f 482/3/5 480/3/5 481/3/5
f 487/3/5 486/3/5 485/3/5
f 488/3/5 486/3/5 487/3/5
f 489/3/5 484/3/5 483/3/5
f 490/3/5 484/3/5 489/3/5
f 495/3/5 492/3/5 491/3/5
f 496/3/5 492/3/5 495/3/5
f 497/3/5 494/3/5 493/3/5
f 498/3/5 494/3/5 497/3/5
f 501/2/5 500/2/5 499/2/5
f 502/2/5 500/2/5 501/2/5
f 505/1/5 504/1/5 503/1/5
f 506/1/5 504/1/5 505/1/5
f 507/1/5 505/1/5 503/1/5
f 508/1/5 505/1/5 507/1/5
f 509/1/5 504/1/5 506/1/5
f 510/1/5 504/1/5 509/1/5
f 513/1/5 512/1/5 511/1/5
f 514/1/5 512/1/5 513/1/5
f 519/1/6 520/1/6 527/1/6
f 527/1/6 520/1/6 528/1/6
f 528/1/6 520/1/6 529/1/6
f 515/1/6 516/1/6 530/1/6
f 530/1/6 516/1/6 531/1/6
f 521/1/6 522/1/6 532/1/6
f 532/1/6 522/1/6 533/1/6
f 533/1/6 522/1/6 534/1/6
f 523/1/6 524/1/6 535/1/6
f 535/1/6 524/1/6 536/1/6
f 536/1/6 524/1/6 537/1/6
f 517/1/6 518/1/6 538/1/6
f 538/1/6 518/1/6 539/1/6
f 525/1/6 526/1/6 540/1/6
f 540/1/6 526/1/6 541/1/6
f 541/1/6 526/1/6 542/1/6
f 528/1/6 529/1/6 543/1/6
f 530/1/6 531/1/6 543/1/6
f 529/1/6 530/1/6 543/1/6
f 531/1/6 532/1/6 543/1/6
f 532/1/6 533/1/6 543/1/6
f 543/1/6 533/1/6 544/1/6
f 544/1/6 533/1/6 545/1/6
f 545/1/6 533/1/6 546/1/6
f 536/1/6 537/1/6 547/1/6
f 538/1/6 539/1/6 547/1/6
f 540/1/6 541/1/6 547/1/6
f 539/1/6 540/1/6 547/1/6
f 537/1/6 538/1/6 547/1/6
f 547/1/6 541/1/6 548/1/6
f 548/1/6 541/1/6 549/1/6
f 549/1/6 541/1/6 550/1/6
f 544/1/6 545/1/6 551/1/6
f 551/1/6 545/1/6 552/1/6
f 552/1/6 545/1/6 553/1/6
f 553/1/6 545/1/6 554/1/6
f 548/1/6 549/1/6 555/1/6
f 555/1/6 549/1/6 556/1/6
f 556/1/6 549/1/6 557/1/6
f 557/1/6 549/1/6 558/1/6
f 561/3/6 562/3/6 563/3/6
f 563/3/6 562/3/6 564/3/6
f 559/3/6 560/3/6 565/3/6
f 565/3/6 560/3/6 566/3/6
f 567/3/6 568/3/6 569/3/6
f 569/3/6 568/3/6 570/3/6
f 571/3/6 572/3/6 573/3/6
f 573/3/6 572/3/6 574/3/6
f 571/3/6 573/3/6 575/3/6
f 574/3/6 572/3/6 576/3/6
f 571/3/6 575/3/6 577/3/6
f 575/3/6 576/3/6 577/3/6
f 576/3/6 572/3/6 578/3/6
f 577/3/6 576/3/6 578/3/6
f 579/1/6 580/1/6 581/1/6
f 581/1/6 580/1/6 582/1/6
f 583/3/6 584/3/6 585/3/6
f 585/3/6 584/3/6 586/3/6
f 583/3/6 585/3/6 587/3/6
f 586/3/6 584/3/6 588/3/6
f 583/3/6 587/3/6 589/3/6
f 587/3/6 588/3/6 589/3/6
f 588/3/6 584/3/6 590/3/6
f 589/3/6 588/3/6 590/3/6
f 591/2/6 592/2/6 593/2/6
f 593/2/6 592/2/6 594/2/6
f 595/2/6 596/2/6 597/2/6
f 597/2/6 596/2/6 598/2/6
