# MagicaVoxel @ Ephtracy

# group
o 

# material
mtllib godBody.mtl
usemtl palette

# normals
vn -1 0 0
vn 1 0 0
vn 0 0 1
vn 0 0 -1
vn 0 -1 0
vn 0 1 0

# texcoords
vt 0.00976562 0.5
vt 0.0136719 0.5
vt 0.0175781 0.5
vt 0.0214844 0.5
vt 0.0332031 0.5
vt 0.0839844 0.5
vt 0.251953 0.5
vt 0.291016 0.5
vt 0.306641 0.5
vt 0.537109 0.5
vt 0.599609 0.5
vt 0.701172 0.5
vt 0.958984 0.5
vt 0.978516 0.5
vt 0.994141 0.5

# verts
v -0.6 2.5 0.4
v -0.6 2.5 0.3
v -0.6 2.6 0.3
v -0.6 2.6 0.2
v -0.6 2.8 0.4
v -0.6 2.8 0.2
v -0.5 1.7 0.6
v -0.5 1.7 -0.1
v -0.5 1.8 0.6
v -0.5 1.8 -0.1
v -0.5 2.3 0.7
v -0.5 2.3 0.6
v -0.5 2.3 -0.1
v -0.5 2.4 0.8
v -0.5 2.4 0.7
v -0.5 2.4 -0.1
v -0.5 2.4 -0.2
v -0.5 2.5 0.4
v -0.5 2.5 0.3
v -0.5 2.5 0.2
v -0.5 2.5 -0.1
v -0.5 2.6 0.3
v -0.5 2.6 0.2
v -0.5 2.8 0.5
v -0.5 2.8 0.4
v -0.5 2.8 0.2
v -0.5 2.9 0.8
v -0.5 2.9 0.7
v -0.5 3 0.8
v -0.5 3 0.7
v -0.5 3 0.6
v -0.5 3 0.5
v -0.5 3.1 0.8
v -0.5 3.1 0.6
v -0.5 3.3 0.8
v -0.5 3.3 0.7
v -0.5 3.4 0.7
v -0.5 3.4 -0.2
v -0.4 1.7 0.7
v -0.4 1.7 0.6
v -0.4 1.7 -0.1
v -0.4 1.7 -0.2
v -0.4 1.8 0.7
v -0.4 1.8 0.6
v -0.4 1.8 -0.1
v -0.4 1.8 -0.2
v -0.4 1.9 0.7
v -0.4 1.9 0.6
v -0.4 2.3 0.8
v -0.4 2.3 0.7
v -0.4 2.3 0.6
v -0.4 2.3 -0.1
v -0.4 2.3 -0.2
v -0.4 2.4 0.8
v -0.4 2.4 0.7
v -0.4 2.4 -0.1
v -0.4 2.4 -0.2
v -0.4 2.4 -0.3
v -0.4 3.3 0.8
v -0.4 3.3 0.7
v -0.4 3.4 0.8
v -0.4 3.4 0.7
v -0.4 3.4 -0.2
v -0.4 3.4 -0.3
v -0.4 3.5 0.7
v -0.4 3.5 -0.2
v -0.4 3.7 0.7
v -0.4 3.7 0.5
v -0.4 3.7 -0.2
v -0.4 3.8 0.7
v -0.4 3.8 0.5
v -0.4 3.8 -0.2
v 0.4 3.7 0.6
v 0.4 3.7 0.5
v 0.4 3.7 0.3
v 0.4 3.7 0.2
v 0.4 3.7 0.1
v 0.4 3.7 -5.96046e-08
v 0.4 3.7 -0.1
v 0.4 3.8 0.6
v 0.4 3.8 0.5
v 0.4 3.8 0.3
v 0.4 3.8 0.2
v 0.4 3.8 0.1
v 0.4 3.8 -5.96046e-08
v 0.4 3.8 -0.1
v -0.3 3.7 0.6
v -0.3 3.7 0.5
v -0.3 3.7 -0.1
v -0.3 3.8 0.6
v -0.3 3.8 0.5
v -0.3 3.8 -0.1
v 0.5 1.7 0.7
v 0.5 1.7 0.6
v 0.5 1.7 -0.1
v 0.5 1.7 -0.2
v 0.5 1.8 0.7
v 0.5 1.8 0.6
v 0.5 1.8 -0.1
v 0.5 1.8 -0.2
v 0.5 1.9 0.7
v 0.5 1.9 0.6
v 0.5 2.3 0.8
v 0.5 2.3 0.7
v 0.5 2.3 0.6
v 0.5 2.3 -0.1
v 0.5 2.3 -0.2
v 0.5 2.4 0.8
v 0.5 2.4 0.7
v 0.5 2.4 -0.1
v 0.5 2.4 -0.2
v 0.5 2.4 -0.3
v 0.5 3.3 0.8
v 0.5 3.3 0.7
v 0.5 3.4 0.8
v 0.5 3.4 0.7
v 0.5 3.4 -0.2
v 0.5 3.4 -0.3
v 0.5 3.5 0.7
v 0.5 3.5 -0.2
v 0.5 3.7 0.7
v 0.5 3.7 0.5
v 0.5 3.7 0.3
v 0.5 3.7 0.2
v 0.5 3.7 0.1
v 0.5 3.7 -5.96046e-08
v 0.5 3.7 -0.1
v 0.5 3.7 -0.2
v 0.5 3.8 0.7
v 0.5 3.8 0.5
v 0.5 3.8 0.3
v 0.5 3.8 0.2
v 0.5 3.8 0.1
v 0.5 3.8 -5.96046e-08
v 0.5 3.8 -0.1
v 0.5 3.8 -0.2
v 0.6 1.7 0.6
v 0.6 1.7 -0.1
v 0.6 1.8 0.6
v 0.6 1.8 -0.1
v 0.6 2.3 0.7
v 0.6 2.3 0.6
v 0.6 2.3 -0.1
v 0.6 2.4 0.8
v 0.6 2.4 0.7
v 0.6 2.4 -0.1
v 0.6 2.4 -0.2
v 0.6 2.5 0.3
v 0.6 2.5 0.2
v 0.6 2.5 0.1
v 0.6 2.5 -0.1
v 0.6 2.6 0.2
v 0.6 2.6 0.1
v 0.6 2.8 0.5
v 0.6 2.8 0.3
v 0.6 2.8 0.1
v 0.6 2.9 0.8
v 0.6 2.9 0.7
v 0.6 3 0.8
v 0.6 3 0.7
v 0.6 3 0.6
v 0.6 3 0.5
v 0.6 3.1 0.8
v 0.6 3.1 0.6
v 0.6 3.3 0.8
v 0.6 3.3 0.7
v 0.6 3.4 0.7
v 0.6 3.4 -0.2
v 0.7 2.5 0.3
v 0.7 2.5 0.2
v 0.7 2.6 0.2
v 0.7 2.6 0.1
v 0.7 2.8 0.3
v 0.7 2.8 0.1
v -0.5 2.4 0.8
v -0.5 2.9 0.8
v -0.5 3 0.8
v -0.5 3.1 0.8
v -0.5 3.3 0.8
v -0.4 2.3 0.8
v -0.4 2.4 0.8
v -0.4 2.5 0.8
v -0.4 2.6 0.8
v -0.4 2.8 0.8
v -0.4 3.3 0.8
v -0.4 3.4 0.8
v -0.3 2.6 0.8
v -0.3 2.8 0.8
v -0.2 2.4 0.8
v -0.2 2.5 0.8
v -0.2 2.6 0.8
v -0.2 2.9 0.8
v -0.2 3 0.8
v -0.0999999 3 0.8
v -0.0999999 3.1 0.8
v 5.96046e-08 2.9 0.8
v 5.96046e-08 3 0.8
v 0.1 2.9 0.8
v 0.1 3 0.8
v 0.2 3 0.8
v 0.2 3.1 0.8
v 0.3 2.4 0.8
v 0.3 2.5 0.8
v 0.3 2.6 0.8
v 0.3 2.9 0.8
v 0.3 3 0.8
v 0.4 2.6 0.8
v 0.4 2.8 0.8
v 0.5 2.3 0.8
v 0.5 2.4 0.8
v 0.5 2.5 0.8
v 0.5 2.6 0.8
v 0.5 2.8 0.8
v 0.5 3.3 0.8
v 0.5 3.4 0.8
v 0.6 2.4 0.8
v 0.6 2.9 0.8
v 0.6 3 0.8
v 0.6 3.1 0.8
v 0.6 3.3 0.8
v -0.5 2.3 0.7
v -0.5 2.4 0.7
v -0.5 3.3 0.7
v -0.5 3.4 0.7
v -0.4 1.7 0.7
v -0.4 1.8 0.7
v -0.4 1.9 0.7
v -0.4 2.3 0.7
v -0.4 2.4 0.7
v -0.4 3.3 0.7
v -0.4 3.4 0.7
v -0.4 3.5 0.7
v -0.4 3.7 0.7
v -0.4 3.8 0.7
v -0.3 1.8 0.7
v -0.3 1.9 0.7
v -0.3 2 0.7
v -0.2 1.9 0.7
v -0.2 2 0.7
v -0.2 2.2 0.7
v -0.2 2.3 0.7
v -0.2 3.7 0.7
v -0.2 3.8 0.7
v -0.0999999 1.7 0.7
v -0.0999999 1.8 0.7
v -0.0999999 2.1 0.7
v -0.0999999 2.2 0.7
v 5.96046e-08 1.8 0.7
v 5.96046e-08 2.1 0.7
v 5.96046e-08 3.7 0.7
v 5.96046e-08 3.8 0.7
v 0.1 1.8 0.7
v 0.1 2.1 0.7
v 0.2 1.7 0.7
v 0.2 1.8 0.7
v 0.2 2.1 0.7
v 0.2 2.2 0.7
v 0.2 3.7 0.7
v 0.2 3.8 0.7
v 0.3 1.9 0.7
v 0.3 2 0.7
v 0.3 2.2 0.7
v 0.3 2.3 0.7
v 0.4 1.8 0.7
v 0.4 1.9 0.7
v 0.4 2 0.7
v 0.5 1.7 0.7
v 0.5 1.8 0.7
v 0.5 1.9 0.7
v 0.5 2.3 0.7
v 0.5 2.4 0.7
v 0.5 3.3 0.7
v 0.5 3.4 0.7
v 0.5 3.5 0.7
v 0.5 3.7 0.7
v 0.5 3.8 0.7
v 0.6 2.3 0.7
v 0.6 2.4 0.7
v 0.6 3.3 0.7
v 0.6 3.4 0.7
v -0.5 1.7 0.6
v -0.5 1.8 0.6
v -0.5 2.3 0.6
v -0.4 1.7 0.6
v -0.4 1.8 0.6
v -0.4 1.9 0.6
v -0.4 2.3 0.6
v 0.5 1.7 0.6
v 0.5 1.8 0.6
v 0.5 1.9 0.6
v 0.5 2.3 0.6
v 0.6 1.7 0.6
v 0.6 1.8 0.6
v 0.6 2.3 0.6
v -0.6 2.5 0.4
v -0.6 2.8 0.4
v -0.5 2.5 0.4
v -0.5 2.8 0.4
v 0.6 2.5 0.3
v 0.6 2.8 0.3
v 0.7 2.5 0.3
v 0.7 2.8 0.3
v -0.3 3.7 -0.1
v -0.3 3.8 -0.1
v 0.1 3.7 -0.1
v 0.1 3.8 -0.1
v 0.4 3.7 -0.1
v 0.4 3.8 -0.1
v -0.3 3.7 0.6
v -0.3 3.8 0.6
v -0.2 3.7 0.6
v -0.2 3.8 0.6
v 5.96046e-08 3.7 0.6
v 5.96046e-08 3.8 0.6
v 0.2 3.7 0.6
v 0.2 3.8 0.6
v 0.4 3.7 0.6
v 0.4 3.8 0.6
v -0.6 2.5 0.3
v -0.6 2.6 0.3
v -0.5 2.5 0.3
v -0.5 2.6 0.3
v -0.6 2.6 0.2
v -0.6 2.8 0.2
v -0.5 2.6 0.2
v -0.5 2.8 0.2
v 0.6 2.5 0.2
v 0.6 2.6 0.2
v 0.7 2.5 0.2
v 0.7 2.6 0.2
v 0.6 2.6 0.1
v 0.6 2.8 0.1
v 0.7 2.6 0.1
v 0.7 2.8 0.1
v -0.5 1.7 -0.1
v -0.5 1.8 -0.1
v -0.5 2.3 -0.1
v -0.5 2.4 -0.1
v -0.4 1.7 -0.1
v -0.4 1.8 -0.1
v -0.4 2.3 -0.1
v -0.4 2.4 -0.1
v 0.5 1.7 -0.1
v 0.5 1.8 -0.1
v 0.5 2.3 -0.1
v 0.5 2.4 -0.1
v 0.6 1.7 -0.1
v 0.6 1.8 -0.1
v 0.6 2.3 -0.1
v 0.6 2.4 -0.1
v -0.5 2.4 -0.2
v -0.5 3.4 -0.2
v -0.4 1.7 -0.2
v -0.4 1.8 -0.2
v -0.4 2.3 -0.2
v -0.4 2.4 -0.2
v -0.4 3.4 -0.2
v -0.4 3.5 -0.2
v -0.4 3.7 -0.2
v -0.4 3.8 -0.2
v -0.2 2.3 -0.2
v -0.2 2.4 -0.2
v 0.1 3.7 -0.2
v 0.1 3.8 -0.2
v 0.3 2.3 -0.2
v 0.3 2.4 -0.2
v 0.4 3.7 -0.2
v 0.4 3.8 -0.2
v 0.5 1.7 -0.2
v 0.5 1.8 -0.2
v 0.5 2.3 -0.2
v 0.5 2.4 -0.2
v 0.5 3.4 -0.2
v 0.5 3.5 -0.2
v 0.5 3.7 -0.2
v 0.5 3.8 -0.2
v 0.6 2.4 -0.2
v 0.6 3.4 -0.2
v -0.4 2.4 -0.3
v -0.4 3.4 -0.3
v 0.5 2.4 -0.3
v 0.5 3.4 -0.3
v -0.4 1.7 0.7
v -0.0999999 1.7 0.7
v 0.2 1.7 0.7
v 0.5 1.7 0.7
v -0.5 1.7 0.6
v -0.4 1.7 0.6
v -0.0999999 1.7 0.6
v 0.2 1.7 0.6
v 0.5 1.7 0.6
v 0.6 1.7 0.6
v -0.5 1.7 -0.1
v -0.4 1.7 -0.1
v 0.5 1.7 -0.1
v 0.6 1.7 -0.1
v -0.4 1.7 -0.2
v 0.5 1.7 -0.2
v -0.4 2.3 0.8
v 0.5 2.3 0.8
v -0.5 2.3 0.7
v -0.4 2.3 0.7
v -0.2 2.3 0.7
v 0.3 2.3 0.7
v 0.5 2.3 0.7
v 0.6 2.3 0.7
v -0.5 2.3 0.6
v -0.4 2.3 0.6
v 0.5 2.3 0.6
v 0.6 2.3 0.6
v -0.5 2.4 0.8
v -0.4 2.4 0.8
v 0.5 2.4 0.8
v 0.6 2.4 0.8
v -0.5 2.4 0.7
v -0.4 2.4 0.7
v 0.5 2.4 0.7
v 0.6 2.4 0.7
v -0.5 2.4 -0.1
v -0.4 2.4 -0.1
v 0.5 2.4 -0.1
v 0.6 2.4 -0.1
v -0.5 2.4 -0.2
v -0.4 2.4 -0.2
v -0.2 2.4 -0.2
v 0.3 2.4 -0.2
v 0.5 2.4 -0.2
v 0.6 2.4 -0.2
v -0.4 2.4 -0.3
v 0.5 2.4 -0.3
v -0.6 2.5 0.4
v -0.5 2.5 0.4
v -0.6 2.5 0.3
v -0.5 2.5 0.3
v 0.6 2.5 0.3
v 0.7 2.5 0.3
v 0.6 2.5 0.2
v 0.7 2.5 0.2
v -0.6 2.6 0.3
v -0.5 2.6 0.3
v -0.6 2.6 0.2
v -0.5 2.6 0.2
v 0.6 2.6 0.2
v 0.7 2.6 0.2
v 0.6 2.6 0.1
v 0.7 2.6 0.1
v -0.4 3.7 0.7
v -0.2 3.7 0.7
v 5.96046e-08 3.7 0.7
v 0.2 3.7 0.7
v 0.5 3.7 0.7
v -0.3 3.7 0.6
v -0.2 3.7 0.6
v 5.96046e-08 3.7 0.6
v 0.2 3.7 0.6
v 0.4 3.7 0.6
v -0.4 3.7 0.5
v -0.3 3.7 0.5
v 0.4 3.7 0.5
v 0.5 3.7 0.5
v 0.4 3.7 0.3
v 0.5 3.7 0.3
v 0.4 3.7 0.2
v 0.5 3.7 0.2
v 0.4 3.7 0.1
v 0.5 3.7 0.1
v 0.4 3.7 -5.96046e-08
v 0.5 3.7 -5.96046e-08
v -0.3 3.7 -0.1
v 0.1 3.7 -0.1
v 0.4 3.7 -0.1
v 0.5 3.7 -0.1
v -0.4 3.7 -0.2
v 0.1 3.7 -0.2
v 0.4 3.7 -0.2
v 0.5 3.7 -0.2
v -0.6 2.8 0.4
v -0.5 2.8 0.4
v 0.6 2.8 0.3
v 0.7 2.8 0.3
v -0.6 2.8 0.2
v -0.5 2.8 0.2
v 0.6 2.8 0.1
v 0.7 2.8 0.1
v -0.5 3.3 0.8
v -0.4 3.3 0.8
v 0.5 3.3 0.8
v 0.6 3.3 0.8
v -0.5 3.3 0.7
v -0.4 3.3 0.7
v 0.5 3.3 0.7
v 0.6 3.3 0.7
v -0.4 3.4 0.8
v 0.5 3.4 0.8
v -0.5 3.4 0.7
v -0.4 3.4 0.7
v 0.5 3.4 0.7
v 0.6 3.4 0.7
v -0.5 3.4 -0.2
v -0.4 3.4 -0.2
v 0.5 3.4 -0.2
v 0.6 3.4 -0.2
v -0.4 3.4 -0.3
v 0.5 3.4 -0.3
v -0.4 3.5 0.7
v 0.5 3.5 0.7
v -0.4 3.5 -0.2
v 0.5 3.5 -0.2
v -0.4 3.8 0.7
v -0.2 3.8 0.7
v 5.96046e-08 3.8 0.7
v 0.2 3.8 0.7
v 0.5 3.8 0.7
v -0.3 3.8 0.6
v -0.2 3.8 0.6
v 5.96046e-08 3.8 0.6
v 0.2 3.8 0.6
v 0.4 3.8 0.6
v -0.4 3.8 0.5
v -0.3 3.8 0.5
v 0.4 3.8 0.5
v 0.5 3.8 0.5
v 0.4 3.8 0.3
v 0.5 3.8 0.3
v 0.4 3.8 0.2
v 0.5 3.8 0.2
v 0.4 3.8 0.1
v 0.5 3.8 0.1
v 0.4 3.8 -5.96046e-08
v 0.5 3.8 -5.96046e-08
v -0.3 3.8 -0.1
v 0.1 3.8 -0.1
v 0.4 3.8 -0.1
v 0.5 3.8 -0.1
v -0.4 3.8 -0.2
v 0.1 3.8 -0.2
v 0.4 3.8 -0.2
v 0.5 3.8 -0.2

# faces
f 3/5/1 2/5/1 1/5/1
f 5/5/1 3/5/1 1/5/1
f 5/5/1 4/5/1 3/5/1
f 6/5/1 4/5/1 5/5/1
f 9/10/1 8/10/1 7/10/1
f 10/10/1 8/10/1 9/10/1
f 12/8/1 10/8/1 9/8/1
f 13/8/1 10/8/1 12/8/1
f 15/5/1 12/5/1 11/5/1
f 15/5/1 13/5/1 12/5/1
f 16/5/1 13/5/1 15/5/1
f 18/5/1 16/5/1 15/5/1
f 18/5/1 15/5/1 14/5/1
f 19/5/1 16/5/1 18/5/1
f 20/5/1 16/5/1 19/5/1
f 21/12/1 17/12/1 16/12/1
f 21/5/1 16/5/1 20/5/1
f 22/5/1 20/5/1 19/5/1
f 23/12/1 21/12/1 20/12/1
f 23/5/1 20/5/1 22/5/1
f 24/5/1 18/5/1 14/5/1
f 25/5/1 18/5/1 24/5/1
f 26/12/1 21/12/1 23/12/1
f 27/5/1 24/5/1 14/5/1
f 28/5/1 24/5/1 27/5/1
f 29/12/1 28/12/1 27/12/1
f 30/5/1 24/5/1 28/5/1
f 30/12/1 28/12/1 29/12/1
f 31/5/1 24/5/1 30/5/1
f 32/12/1 25/12/1 24/12/1
f 32/5/1 24/5/1 31/5/1
f 32/12/1 26/12/1 25/12/1
f 33/5/1 31/5/1 30/5/1
f 33/5/1 30/5/1 29/5/1
f 34/12/1 32/12/1 31/12/1
f 34/5/1 31/5/1 33/5/1
f 35/12/1 34/12/1 33/12/1
f 36/12/1 34/12/1 35/12/1
f 37/12/1 34/12/1 36/12/1
f 38/12/1 17/12/1 21/12/1
f 38/12/1 34/12/1 37/12/1
f 38/12/1 26/12/1 32/12/1
f 38/12/1 21/12/1 26/12/1
f 38/12/1 32/12/1 34/12/1
f 43/10/1 40/10/1 39/10/1
f 44/10/1 40/10/1 43/10/1
f 45/10/1 42/10/1 41/10/1
f 46/10/1 42/10/1 45/10/1
f 47/11/1 44/11/1 43/11/1
f 48/11/1 44/11/1 47/11/1
f 50/8/1 48/8/1 47/8/1
f 51/8/1 48/8/1 50/8/1
f 52/8/1 46/8/1 45/8/1
f 53/8/1 46/8/1 52/8/1
f 54/5/1 50/5/1 49/5/1
f 55/5/1 50/5/1 54/5/1
f 56/5/1 53/5/1 52/5/1
f 57/5/1 53/5/1 56/5/1
f 61/12/1 60/12/1 59/12/1
f 62/12/1 60/12/1 61/12/1
f 63/12/1 58/12/1 57/12/1
f 64/12/1 58/12/1 63/12/1
f 65/12/1 63/12/1 62/12/1
f 66/12/1 63/12/1 65/12/1
f 70/2/1 68/2/1 67/2/1
f 71/3/1 69/3/1 68/3/1
f 71/2/1 68/2/1 70/2/1
f 72/3/1 69/3/1 71/3/1
f 80/3/1 74/3/1 73/3/1
f 81/4/1 75/4/1 74/4/1
f 81/3/1 74/3/1 80/3/1
f 82/3/1 76/3/1 75/3/1
f 82/4/1 75/4/1 81/4/1
f 83/4/1 77/4/1 76/4/1
f 83/3/1 76/3/1 82/3/1
f 84/3/1 78/3/1 77/3/1
f 84/4/1 77/4/1 83/4/1
f 85/4/1 79/4/1 78/4/1
f 85/3/1 78/3/1 84/3/1
f 86/4/1 79/4/1 85/4/1
f 87/2/2 88/2/2 90/2/2
f 88/3/2 89/3/2 91/3/2
f 90/2/2 88/2/2 91/2/2
f 91/3/2 89/3/2 92/3/2
f 93/10/2 94/10/2 97/10/2
f 97/10/2 94/10/2 98/10/2
f 95/10/2 96/10/2 99/10/2
f 99/10/2 96/10/2 100/10/2
f 97/11/2 98/11/2 101/11/2
f 101/11/2 98/11/2 102/11/2
f 101/8/2 102/8/2 104/8/2
f 104/8/2 102/8/2 105/8/2
f 99/8/2 100/8/2 106/8/2
f 106/8/2 100/8/2 107/8/2
f 103/5/2 104/5/2 108/5/2
f 108/5/2 104/5/2 109/5/2
f 106/5/2 107/5/2 110/5/2
f 110/5/2 107/5/2 111/5/2
f 113/12/2 114/12/2 115/12/2
f 115/12/2 114/12/2 116/12/2
f 111/12/2 112/12/2 117/12/2
f 117/12/2 112/12/2 118/12/2
f 116/12/2 117/12/2 119/12/2
f 119/12/2 117/12/2 120/12/2
f 121/3/2 122/3/2 129/3/2
f 122/4/2 123/4/2 130/4/2
f 129/3/2 122/3/2 130/3/2
f 123/3/2 124/3/2 131/3/2
f 130/4/2 123/4/2 131/4/2
f 124/4/2 125/4/2 132/4/2
f 131/3/2 124/3/2 132/3/2
f 125/3/2 126/3/2 133/3/2
f 132/4/2 125/4/2 133/4/2
f 126/4/2 127/4/2 134/4/2
f 133/3/2 126/3/2 134/3/2
f 127/3/2 128/3/2 135/3/2
f 134/4/2 127/4/2 135/4/2
f 135/3/2 128/3/2 136/3/2
f 137/10/2 138/10/2 139/10/2
f 139/10/2 138/10/2 140/10/2
f 139/8/2 140/8/2 142/8/2
f 142/8/2 140/8/2 143/8/2
f 141/5/2 142/5/2 145/5/2
f 142/5/2 143/5/2 145/5/2
f 145/5/2 143/5/2 146/5/2
f 145/5/2 146/5/2 148/5/2
f 144/5/2 145/5/2 148/5/2
f 148/5/2 146/5/2 149/5/2
f 149/5/2 146/5/2 150/5/2
f 146/12/2 147/12/2 151/12/2
f 150/5/2 146/5/2 151/5/2
f 149/5/2 150/5/2 152/5/2
f 150/12/2 151/12/2 153/12/2
f 152/5/2 150/5/2 153/5/2
f 144/5/2 148/5/2 154/5/2
f 154/5/2 148/5/2 155/5/2
f 153/12/2 151/12/2 156/12/2
f 144/5/2 154/5/2 157/5/2
f 157/5/2 154/5/2 158/5/2
f 157/12/2 158/12/2 159/12/2
f 158/5/2 154/5/2 160/5/2
f 159/12/2 158/12/2 160/12/2
f 160/5/2 154/5/2 161/5/2
f 154/12/2 155/12/2 162/12/2
f 161/5/2 154/5/2 162/5/2
f 155/12/2 156/12/2 162/12/2
f 160/5/2 161/5/2 163/5/2
f 159/5/2 160/5/2 163/5/2
f 161/12/2 162/12/2 164/12/2
f 163/5/2 161/5/2 164/5/2
f 163/12/2 164/12/2 165/12/2
f 165/12/2 164/12/2 166/12/2
f 166/12/2 164/12/2 167/12/2
f 151/12/2 147/12/2 168/12/2
f 167/12/2 164/12/2 168/12/2
f 162/12/2 156/12/2 168/12/2
f 156/12/2 151/12/2 168/12/2
f 164/12/2 162/12/2 168/12/2
f 169/5/2 170/5/2 171/5/2
f 169/5/2 171/5/2 173/5/2
f 171/5/2 172/5/2 173/5/2
f 173/5/2 172/5/2 174/5/2
f 181/5/3 176/5/3 175/5/3
f 182/5/3 176/5/3 181/5/3
f 183/5/3 176/5/3 182/5/3
f 184/5/3 176/5/3 183/5/3
f 185/12/3 179/12/3 178/12/3
f 187/6/3 183/6/3 182/6/3
f 187/15/3 184/15/3 183/15/3
f 188/5/3 176/5/3 184/5/3
f 188/15/3 184/15/3 187/15/3
f 189/5/3 181/5/3 180/5/3
f 189/5/3 182/5/3 181/5/3
f 190/6/3 187/6/3 182/6/3
f 190/5/3 182/5/3 189/5/3
f 191/5/3 188/5/3 187/5/3
f 191/6/3 187/6/3 190/6/3
f 192/12/3 177/12/3 176/12/3
f 192/5/3 188/5/3 191/5/3
f 192/5/3 176/5/3 188/5/3
f 193/5/3 178/5/3 177/5/3
f 193/12/3 177/12/3 192/12/3
f 194/5/3 192/5/3 191/5/3
f 194/5/3 178/5/3 193/5/3
f 194/5/3 193/5/3 192/5/3
f 195/12/3 186/12/3 185/12/3
f 195/5/3 178/5/3 194/5/3
f 195/12/3 185/12/3 178/12/3
f 196/5/3 194/5/3 191/5/3
f 197/12/3 195/12/3 194/12/3
f 197/5/3 194/5/3 196/5/3
f 198/5/3 196/5/3 191/5/3
f 198/12/3 197/12/3 196/12/3
f 199/12/3 195/12/3 197/12/3
f 199/12/3 197/12/3 198/12/3
f 200/5/3 199/5/3 198/5/3
f 200/12/3 195/12/3 199/12/3
f 201/12/3 186/12/3 195/12/3
f 201/12/3 195/12/3 200/12/3
f 202/5/3 189/5/3 180/5/3
f 202/7/3 190/7/3 189/7/3
f 203/13/3 191/13/3 190/13/3
f 203/7/3 190/7/3 202/7/3
f 204/5/3 200/5/3 198/5/3
f 204/13/3 191/13/3 203/13/3
f 204/5/3 201/5/3 200/5/3
f 204/5/3 198/5/3 191/5/3
f 205/5/3 201/5/3 204/5/3
f 206/5/3 201/5/3 205/5/3
f 207/6/3 204/6/3 203/6/3
f 207/5/3 205/5/3 204/5/3
f 208/5/3 205/5/3 207/5/3
f 209/5/3 202/5/3 180/5/3
f 209/5/3 203/5/3 202/5/3
f 210/5/3 203/5/3 209/5/3
f 211/6/3 207/6/3 203/6/3
f 211/5/3 203/5/3 210/5/3
f 212/15/3 208/15/3 207/15/3
f 212/6/3 207/6/3 211/6/3
f 213/5/3 205/5/3 208/5/3
f 213/15/3 208/15/3 212/15/3
f 214/12/3 186/12/3 201/12/3
f 215/12/3 186/12/3 214/12/3
f 216/5/3 212/5/3 211/5/3
f 216/5/3 211/5/3 210/5/3
f 216/5/3 213/5/3 212/5/3
f 217/5/3 205/5/3 213/5/3
f 217/5/3 213/5/3 216/5/3
f 217/12/3 206/12/3 205/12/3
f 218/5/3 201/5/3 206/5/3
f 218/12/3 206/12/3 217/12/3
f 219/12/3 214/12/3 201/12/3
f 219/5/3 201/5/3 218/5/3
f 220/12/3 214/12/3 219/12/3
f 228/5/3 222/5/3 221/5/3
f 229/5/3 222/5/3 228/5/3
f 230/12/3 224/12/3 223/12/3
f 231/12/3 224/12/3 230/12/3
f 235/11/3 227/11/3 226/11/3
f 235/10/3 226/10/3 225/10/3
f 236/8/3 228/8/3 227/8/3
f 236/11/3 227/11/3 235/11/3
f 237/8/3 228/8/3 236/8/3
f 238/8/3 236/8/3 235/8/3
f 238/11/3 237/11/3 236/11/3
f 239/8/3 228/8/3 237/8/3
f 239/11/3 237/11/3 238/11/3
f 240/8/3 228/8/3 239/8/3
f 241/8/3 228/8/3 240/8/3
f 242/2/3 234/2/3 233/2/3
f 243/2/3 234/2/3 242/2/3
f 244/10/3 235/10/3 225/10/3
f 245/8/3 238/8/3 235/8/3
f 245/10/3 235/10/3 244/10/3
f 245/8/3 239/8/3 238/8/3
f 245/8/3 240/8/3 239/8/3
f 246/8/3 240/8/3 245/8/3
f 247/11/3 241/11/3 240/11/3
f 247/8/3 240/8/3 246/8/3
f 248/8/3 246/8/3 245/8/3
f 248/14/3 245/14/3 244/14/3
f 249/11/3 247/11/3 246/11/3
f 249/8/3 246/8/3 248/8/3
f 250/1/3 243/1/3 242/1/3
f 251/1/3 243/1/3 250/1/3
f 252/14/3 248/14/3 244/14/3
f 252/11/3 249/11/3 248/11/3
f 253/11/3 247/11/3 249/11/3
f 253/11/3 249/11/3 252/11/3
f 254/14/3 252/14/3 244/14/3
f 255/8/3 253/8/3 252/8/3
f 255/14/3 252/14/3 254/14/3
f 256/11/3 247/11/3 253/11/3
f 256/8/3 253/8/3 255/8/3
f 257/11/3 241/11/3 247/11/3
f 257/11/3 247/11/3 256/11/3
f 258/2/3 251/2/3 250/2/3
f 259/2/3 251/2/3 258/2/3
f 260/8/3 256/8/3 255/8/3
f 260/8/3 257/8/3 256/8/3
f 261/8/3 257/8/3 260/8/3
f 262/11/3 241/11/3 257/11/3
f 262/8/3 257/8/3 261/8/3
f 263/11/3 241/11/3 262/11/3
f 264/10/3 255/10/3 254/10/3
f 264/8/3 260/8/3 255/8/3
f 265/11/3 261/11/3 260/11/3
f 265/8/3 260/8/3 264/8/3
f 266/8/3 263/8/3 262/8/3
f 266/11/3 261/11/3 265/11/3
f 266/8/3 262/8/3 261/8/3
f 267/10/3 264/10/3 254/10/3
f 268/11/3 265/11/3 264/11/3
f 268/10/3 264/10/3 267/10/3
f 269/8/3 266/8/3 265/8/3
f 269/11/3 265/11/3 268/11/3
f 270/8/3 263/8/3 266/8/3
f 270/8/3 266/8/3 269/8/3
f 273/12/3 232/12/3 231/12/3
f 274/12/3 232/12/3 273/12/3
f 275/3/3 259/3/3 258/3/3
f 276/3/3 259/3/3 275/3/3
f 277/5/3 271/5/3 270/5/3
f 278/5/3 271/5/3 277/5/3
f 279/12/3 273/12/3 272/12/3
f 280/12/3 273/12/3 279/12/3
f 284/10/3 282/10/3 281/10/3
f 285/8/3 283/8/3 282/8/3
f 285/10/3 282/10/3 284/10/3
f 286/8/3 283/8/3 285/8/3
f 287/8/3 283/8/3 286/8/3
f 292/10/3 289/10/3 288/10/3
f 293/8/3 291/8/3 290/8/3
f 293/10/3 289/10/3 292/10/3
f 293/8/3 290/8/3 289/8/3
f 294/8/3 291/8/3 293/8/3
f 297/5/3 296/5/3 295/5/3
f 298/5/3 296/5/3 297/5/3
f 301/5/3 300/5/3 299/5/3
f 302/5/3 300/5/3 301/5/3
f 305/3/3 304/3/3 303/3/3
f 306/3/3 304/3/3 305/3/3
f 307/4/3 306/4/3 305/4/3
f 308/4/3 306/4/3 307/4/3
f 309/2/4 310/2/4 311/2/4
f 311/2/4 310/2/4 312/2/4
f 311/1/4 312/1/4 313/1/4
f 313/1/4 312/1/4 314/1/4
f 313/2/4 314/2/4 315/2/4
f 315/2/4 314/2/4 316/2/4
f 315/3/4 316/3/4 317/3/4
f 317/3/4 316/3/4 318/3/4
f 319/5/4 320/5/4 321/5/4
f 321/5/4 320/5/4 322/5/4
f 323/5/4 324/5/4 325/5/4
f 325/5/4 324/5/4 326/5/4
f 327/5/4 328/5/4 329/5/4
f 329/5/4 328/5/4 330/5/4
f 331/5/4 332/5/4 333/5/4
f 333/5/4 332/5/4 334/5/4
f 335/10/4 336/10/4 339/10/4
f 336/8/4 337/8/4 340/8/4
f 339/10/4 336/10/4 340/10/4
f 337/5/4 338/5/4 341/5/4
f 340/8/4 337/8/4 341/8/4
f 341/5/4 338/5/4 342/5/4
f 343/10/4 344/10/4 347/10/4
f 344/8/4 345/8/4 348/8/4
f 347/10/4 344/10/4 348/10/4
f 345/5/4 346/5/4 349/5/4
f 348/8/4 345/8/4 349/8/4
f 349/5/4 346/5/4 350/5/4
f 351/12/4 352/12/4 356/12/4
f 356/12/4 352/12/4 357/12/4
f 354/8/4 355/8/4 361/8/4
f 355/5/4 356/5/4 361/5/4
f 361/5/4 356/5/4 362/5/4
f 359/3/4 360/3/4 363/3/4
f 363/3/4 360/3/4 364/3/4
f 361/12/4 362/12/4 365/12/4
f 354/8/4 361/8/4 365/8/4
f 365/12/4 362/12/4 366/12/4
f 363/4/4 364/4/4 367/4/4
f 367/4/4 364/4/4 368/4/4
f 353/10/4 354/10/4 369/10/4
f 354/8/4 365/8/4 370/8/4
f 369/10/4 354/10/4 370/10/4
f 365/5/4 366/5/4 371/5/4
f 370/8/4 365/8/4 371/8/4
f 371/5/4 366/5/4 372/5/4
f 357/12/4 358/12/4 373/12/4
f 373/12/4 358/12/4 374/12/4
f 367/3/4 368/3/4 375/3/4
f 375/3/4 368/3/4 376/3/4
f 372/12/4 373/12/4 377/12/4
f 377/12/4 373/12/4 378/12/4
f 379/12/4 380/12/4 381/12/4
f 381/12/4 380/12/4 382/12/4
f 388/10/5 384/10/5 383/10/5
f 389/14/5 385/14/5 384/14/5
f 389/10/5 384/10/5 388/10/5
f 390/10/5 386/10/5 385/10/5
f 390/14/5 385/14/5 389/14/5
f 391/10/5 386/10/5 390/10/5
f 393/10/5 388/10/5 387/10/5
f 394/12/5 389/12/5 388/12/5
f 394/10/5 388/10/5 393/10/5
f 394/12/5 390/12/5 389/12/5
f 394/12/5 391/12/5 390/12/5
f 395/10/5 392/10/5 391/10/5
f 395/12/5 391/12/5 394/12/5
f 396/10/5 392/10/5 395/10/5
f 397/10/5 395/10/5 394/10/5
f 398/10/5 395/10/5 397/10/5
f 402/5/5 400/5/5 399/5/5
f 403/5/5 400/5/5 402/5/5
f 404/5/5 400/5/5 403/5/5
f 405/5/5 400/5/5 404/5/5
f 407/5/5 402/5/5 401/5/5
f 408/5/5 402/5/5 407/5/5
f 409/5/5 406/5/5 405/5/5
f 410/5/5 406/5/5 409/5/5
f 415/5/5 412/5/5 411/5/5
f 416/5/5 412/5/5 415/5/5
f 417/5/5 414/5/5 413/5/5
f 418/5/5 414/5/5 417/5/5
f 423/12/5 420/12/5 419/12/5
f 424/12/5 420/12/5 423/12/5
f 427/12/5 422/12/5 421/12/5
f 428/12/5 422/12/5 427/12/5
f 429/12/5 426/12/5 425/12/5
f 429/12/5 427/12/5 426/12/5
f 429/12/5 425/12/5 424/12/5
f 430/12/5 427/12/5 429/12/5
f 433/5/5 432/5/5 431/5/5
f 434/5/5 432/5/5 433/5/5
f 437/5/5 436/5/5 435/5/5
f 438/5/5 436/5/5 437/5/5
f 441/5/5 440/5/5 439/5/5
f 442/5/5 440/5/5 441/5/5
f 445/5/5 444/5/5 443/5/5
f 446/5/5 444/5/5 445/5/5
f 452/2/5 448/2/5 447/2/5
f 453/1/5 449/1/5 448/1/5
f 453/2/5 448/2/5 452/2/5
f 454/2/5 450/2/5 449/2/5
f 454/1/5 449/1/5 453/1/5
f 455/3/5 451/3/5 450/3/5
f 455/2/5 450/2/5 454/2/5
f 456/3/5 451/3/5 455/3/5
f 457/2/5 452/2/5 447/2/5
f 458/2/5 452/2/5 457/2/5
f 459/3/5 451/3/5 456/3/5
f 460/3/5 451/3/5 459/3/5
f 461/4/5 460/4/5 459/4/5
f 462/4/5 460/4/5 461/4/5
f 463/3/5 462/3/5 461/3/5
f 464/3/5 462/3/5 463/3/5
f 465/4/5 464/4/5 463/4/5
f 466/4/5 464/4/5 465/4/5
f 467/3/5 466/3/5 465/3/5
f 468/3/5 466/3/5 467/3/5
f 469/3/5 458/3/5 457/3/5
f 471/4/5 468/4/5 467/4/5
f 472/4/5 468/4/5 471/4/5
f 473/3/5 470/3/5 469/3/5
f 473/3/5 469/3/5 457/3/5
f 474/4/5 471/4/5 470/4/5
f 474/3/5 470/3/5 473/3/5
f 475/3/5 472/3/5 471/3/5
f 475/4/5 471/4/5 474/4/5
f 476/3/5 472/3/5 475/3/5
f 477/5/6 478/5/6 481/5/6
f 481/5/6 478/5/6 482/5/6
f 479/5/6 480/5/6 483/5/6
f 483/5/6 480/5/6 484/5/6
f 485/12/6 486/12/6 489/12/6
f 489/12/6 486/12/6 490/12/6
f 487/12/6 488/12/6 491/12/6
f 491/12/6 488/12/6 492/12/6
f 493/12/6 494/12/6 496/12/6
f 496/12/6 494/12/6 497/12/6
f 495/12/6 496/12/6 499/12/6
f 499/12/6 496/12/6 500/12/6
f 497/12/6 498/12/6 501/12/6
f 501/12/6 498/12/6 502/12/6
f 500/12/6 501/12/6 503/12/6
f 503/12/6 501/12/6 504/12/6
f 505/12/6 506/12/6 507/12/6
f 507/12/6 506/12/6 508/12/6
f 509/2/6 510/2/6 514/2/6
f 510/1/6 511/1/6 515/1/6
f 514/2/6 510/2/6 515/2/6
f 511/2/6 512/2/6 516/2/6
f 515/1/6 511/1/6 516/1/6
f 512/3/6 513/3/6 517/3/6
f 516/2/6 512/2/6 517/2/6
f 517/3/6 513/3/6 518/3/6
f 509/2/6 514/2/6 519/2/6
f 519/2/6 514/2/6 520/2/6
f 518/3/6 513/3/6 521/3/6
f 521/3/6 513/3/6 522/3/6
f 521/4/6 522/4/6 523/4/6
f 523/4/6 522/4/6 524/4/6
f 523/3/6 524/3/6 525/3/6
f 525/3/6 524/3/6 526/3/6
f 525/4/6 526/4/6 527/4/6
f 527/4/6 526/4/6 528/4/6
f 527/3/6 528/3/6 529/3/6
f 529/3/6 528/3/6 530/3/6
f 519/3/6 520/3/6 531/3/6
f 529/4/6 530/4/6 533/4/6
f 533/4/6 530/4/6 534/4/6
f 531/3/6 532/3/6 535/3/6
f 519/3/6 531/3/6 535/3/6
f 532/4/6 533/4/6 536/4/6
f 535/3/6 532/3/6 536/3/6
f 533/3/6 534/3/6 537/3/6
f 536/4/6 533/4/6 537/4/6
f 537/3/6 534/3/6 538/3/6
