# MagicaVoxel @ Ephtracy

# group
o 

# material
mtllib right_leg.mtl
usemtl palette

# normals
vn -1 0 0
vn 1 0 0
vn 0 0 1
vn 0 0 -1
vn 0 -1 0
vn 0 1 0

# texcoords
vt 0.533203 0.5
vt 0.537109 0.5
vt 0.701172 0.5

# verts
v 0.1 1.2 1
v 0.1 1.2 0.9
v 0.1 1.2 0.7
v 0.1 1.2 0.0999999
v 0.1 1.7 0.9
v 0.1 1.7 0.7
v 0.1 1.7 0.0999999
v 0.1 1.8 1
v 0.1 1.8 0.9
v 0.5 1.2 1
v 0.5 1.2 0.9
v 0.5 1.2 0.7
v 0.5 1.2 0.0999999
v 0.5 1.7 0.9
v 0.5 1.7 0.7
v 0.5 1.7 0.0999999
v 0.5 1.8 1
v 0.5 1.8 0.9
v 0.1 1.2 1
v 0.1 1.8 1
v 0.5 1.2 1
v 0.5 1.8 1
v 0.1 1.7 0.9
v 0.1 1.8 0.9
v 0.5 1.7 0.9
v 0.5 1.8 0.9
v 0.1 1.2 0.0999999
v 0.1 1.7 0.0999999
v 0.5 1.2 0.0999999
v 0.5 1.7 0.0999999
v 0.1 1.2 1
v 0.5 1.2 1
v 0.1 1.2 0.9
v 0.5 1.2 0.9
v 0.1 1.2 0.7
v 0.5 1.2 0.7
v 0.1 1.2 0.0999999
v 0.5 1.2 0.0999999
v 0.1 1.7 0.9
v 0.5 1.7 0.9
v 0.1 1.7 0.7
v 0.5 1.7 0.7
v 0.1 1.7 0.0999999
v 0.5 1.7 0.0999999
v 0.1 1.8 1
v 0.5 1.8 1
v 0.1 1.8 0.9
v 0.5 1.8 0.9

# faces
f 5/2/1 2/2/1 1/2/1
f 5/1/1 3/1/1 2/1/1
f 6/3/1 4/3/1 3/3/1
f 6/1/1 3/1/1 5/1/1
f 7/3/1 4/3/1 6/3/1
f 8/2/1 5/2/1 1/2/1
f 9/2/1 5/2/1 8/2/1
f 10/2/2 11/2/2 14/2/2
f 11/1/2 12/1/2 14/1/2
f 12/3/2 13/3/2 15/3/2
f 14/1/2 12/1/2 15/1/2
f 15/3/2 13/3/2 16/3/2
f 10/2/2 14/2/2 17/2/2
f 17/2/2 14/2/2 18/2/2
f 21/2/3 20/2/3 19/2/3
f 22/2/3 20/2/3 21/2/3
f 23/2/4 24/2/4 25/2/4
f 25/2/4 24/2/4 26/2/4
f 27/3/4 28/3/4 29/3/4
f 29/3/4 28/3/4 30/3/4
f 33/2/5 32/2/5 31/2/5
f 34/2/5 32/2/5 33/2/5
f 35/1/5 34/1/5 33/1/5
f 36/1/5 34/1/5 35/1/5
f 37/3/5 36/3/5 35/3/5
f 38/3/5 36/3/5 37/3/5
f 39/1/6 40/1/6 41/1/6
f 41/1/6 40/1/6 42/1/6
f 41/3/6 42/3/6 43/3/6
f 43/3/6 42/3/6 44/3/6
f 45/2/6 46/2/6 47/2/6
f 47/2/6 46/2/6 48/2/6
