# MagicaVoxel @ Ephtracy

# group
o 

# material
mtllib left_hand.mtl
usemtl palette

# normals
vn -1 0 0
vn 1 0 0
vn 0 0 1
vn 0 0 -1
vn 0 -1 0
vn 0 1 0

# texcoords
vt 0.0332031 0.5
vt 0.291016 0.5
vt 0.599609 0.5

# verts
v -0.8 1.8 0.9
v -0.8 1.8 0.7
v -0.8 1.8 0.5
v -0.8 1.8 0.1
v -0.8 2.2 0.9
v -0.8 2.2 0.8
v -0.8 2.3 0.8
v -0.8 2.3 0.7
v -0.8 2.3 0.5
v -0.8 2.3 0.1
v -0.7 2.2 0.9
v -0.7 2.2 0.8
v -0.7 2.3 0.9
v -0.7 2.3 0.8
v -0.5 1.8 0.9
v -0.5 1.8 0.7
v -0.5 1.8 0.5
v -0.5 1.8 0.1
v -0.5 2.3 0.9
v -0.5 2.3 0.7
v -0.5 2.3 0.5
v -0.5 2.3 0.1
v -0.8 1.8 0.9
v -0.8 2.2 0.9
v -0.7 2.2 0.9
v -0.7 2.3 0.9
v -0.5 1.8 0.9
v -0.5 2.3 0.9
v -0.8 2.2 0.8
v -0.8 2.3 0.8
v -0.7 2.2 0.8
v -0.7 2.3 0.8
v -0.8 1.8 0.1
v -0.8 2.3 0.1
v -0.5 1.8 0.1
v -0.5 2.3 0.1
v -0.8 1.8 0.9
v -0.5 1.8 0.9
v -0.8 1.8 0.7
v -0.5 1.8 0.7
v -0.8 1.8 0.5
v -0.5 1.8 0.5
v -0.8 1.8 0.1
v -0.5 1.8 0.1
v -0.8 2.2 0.9
v -0.7 2.2 0.9
v -0.8 2.2 0.8
v -0.7 2.2 0.8
v -0.7 2.3 0.9
v -0.5 2.3 0.9
v -0.8 2.3 0.8
v -0.7 2.3 0.8
v -0.8 2.3 0.7
v -0.5 2.3 0.7
v -0.8 2.3 0.5
v -0.5 2.3 0.5
v -0.8 2.3 0.1
v -0.5 2.3 0.1

# faces
f 5/1/1 2/1/1 1/1/1
f 6/1/1 2/1/1 5/1/1
f 7/1/1 2/1/1 6/1/1
f 8/3/1 3/3/1 2/3/1
f 8/1/1 2/1/1 7/1/1
f 9/2/1 4/2/1 3/2/1
f 9/3/1 3/3/1 8/3/1
f 10/2/1 4/2/1 9/2/1
f 13/1/1 12/1/1 11/1/1
f 14/1/1 12/1/1 13/1/1
f 15/1/2 16/1/2 19/1/2
f 16/3/2 17/3/2 20/3/2
f 19/1/2 16/1/2 20/1/2
f 17/2/2 18/2/2 21/2/2
f 20/3/2 17/3/2 21/3/2
f 21/2/2 18/2/2 22/2/2
f 25/1/3 24/1/3 23/1/3
f 27/1/3 25/1/3 23/1/3
f 27/1/3 26/1/3 25/1/3
f 28/1/3 26/1/3 27/1/3
f 31/1/3 30/1/3 29/1/3
f 32/1/3 30/1/3 31/1/3
f 33/2/4 34/2/4 35/2/4
f 35/2/4 34/2/4 36/2/4
f 39/1/5 38/1/5 37/1/5
f 40/1/5 38/1/5 39/1/5
f 41/3/5 40/3/5 39/3/5
f 42/3/5 40/3/5 41/3/5
f 43/2/5 42/2/5 41/2/5
f 44/2/5 42/2/5 43/2/5
f 45/1/6 46/1/6 47/1/6
f 47/1/6 46/1/6 48/1/6
f 49/1/6 50/1/6 52/1/6
f 51/1/6 52/1/6 53/1/6
f 52/1/6 50/1/6 54/1/6
f 53/1/6 52/1/6 54/1/6
f 53/3/6 54/3/6 55/3/6
f 55/3/6 54/3/6 56/3/6
f 55/2/6 56/2/6 57/2/6
f 57/2/6 56/2/6 58/2/6
