# MagicaVoxel @ Ephtracy

# group
o 

# material
mtllib right_hand.mtl
usemtl palette

# normals
vn -1 0 0
vn 1 0 0
vn 0 0 1
vn 0 0 -1
vn 0 -1 0
vn 0 1 0

# texcoords
vt 0.0332031 0.5
vt 0.291016 0.5
vt 0.599609 0.5

# verts
v 0.6 1.8 0.4
v 0.6 1.8 0
v 0.6 1.8 -0.2
v 0.6 1.8 -0.4
v 0.6 2.3 0.4
v 0.6 2.3 0
v 0.6 2.3 -0.2
v 0.6 2.3 -0.4
v 0.8 1.8 -0.3
v 0.8 1.8 -0.4
v 0.8 1.9 -0.3
v 0.8 1.9 -0.4
v 0.9 1.8 0.4
v 0.9 1.8 0
v 0.9 1.8 -0.2
v 0.9 1.8 -0.3
v 0.9 1.9 -0.3
v 0.9 1.9 -0.4
v 0.9 2.3 0.4
v 0.9 2.3 0
v 0.9 2.3 -0.2
v 0.9 2.3 -0.4
v 0.6 1.8 0.4
v 0.6 2.3 0.4
v 0.9 1.8 0.4
v 0.9 2.3 0.4
v 0.8 1.8 -0.3
v 0.8 1.9 -0.3
v 0.9 1.8 -0.3
v 0.9 1.9 -0.3
v 0.6 1.8 -0.4
v 0.6 2.3 -0.4
v 0.8 1.8 -0.4
v 0.8 1.9 -0.4
v 0.9 1.9 -0.4
v 0.9 2.3 -0.4
v 0.6 1.8 0.4
v 0.9 1.8 0.4
v 0.6 1.8 0
v 0.9 1.8 0
v 0.6 1.8 -0.2
v 0.9 1.8 -0.2
v 0.8 1.8 -0.3
v 0.9 1.8 -0.3
v 0.6 1.8 -0.4
v 0.8 1.8 -0.4
v 0.8 1.9 -0.3
v 0.9 1.9 -0.3
v 0.8 1.9 -0.4
v 0.9 1.9 -0.4
v 0.6 2.3 0.4
v 0.9 2.3 0.4
v 0.6 2.3 0
v 0.9 2.3 0
v 0.6 2.3 -0.2
v 0.9 2.3 -0.2
v 0.6 2.3 -0.4
v 0.9 2.3 -0.4

# faces
f 5/2/1 2/2/1 1/2/1
f 6/3/1 3/3/1 2/3/1
f 6/2/1 2/2/1 5/2/1
f 7/1/1 4/1/1 3/1/1
f 7/3/1 3/3/1 6/3/1
f 8/1/1 4/1/1 7/1/1
f 9/1/2 10/1/2 11/1/2
f 11/1/2 10/1/2 12/1/2
f 15/1/2 16/1/2 17/1/2
f 13/2/2 14/2/2 19/2/2
f 14/3/2 15/3/2 20/3/2
f 19/2/2 14/2/2 20/2/2
f 17/1/2 18/1/2 21/1/2
f 20/3/2 15/3/2 21/3/2
f 15/1/2 17/1/2 21/1/2
f 21/1/2 18/1/2 22/1/2
f 25/2/3 24/2/3 23/2/3
f 26/2/3 24/2/3 25/2/3
f 27/1/4 28/1/4 29/1/4
f 29/1/4 28/1/4 30/1/4
f 31/1/4 32/1/4 33/1/4
f 33/1/4 32/1/4 34/1/4
f 34/1/4 32/1/4 35/1/4
f 35/1/4 32/1/4 36/1/4
f 39/2/5 38/2/5 37/2/5
f 40/2/5 38/2/5 39/2/5
f 41/3/5 40/3/5 39/3/5
f 42/3/5 40/3/5 41/3/5
f 43/1/5 42/1/5 41/1/5
f 44/1/5 42/1/5 43/1/5
f 45/1/5 43/1/5 41/1/5
f 46/1/5 43/1/5 45/1/5
f 49/1/5 48/1/5 47/1/5
f 50/1/5 48/1/5 49/1/5
f 51/2/6 52/2/6 53/2/6
f 53/2/6 52/2/6 54/2/6
f 53/3/6 54/3/6 55/3/6
f 55/3/6 54/3/6 56/3/6
f 55/1/6 56/1/6 57/1/6
f 57/1/6 56/1/6 58/1/6
